<svg width="24" height="24" viewBox="0 0 24 24" fill="none" xmlns="http://www.w3.org/2000/svg">
<path d="M22 7.23999C22.0007 7.10838 21.9755 6.97792 21.9258 6.85608C21.876 6.73424 21.8027 6.62343 21.71 6.52999L17.47 2.28999C17.3765 2.1973 17.2657 2.12398 17.1439 2.07421C17.0221 2.02445 16.8916 1.99923 16.76 1.99999C16.6284 1.99923 16.4979 2.02445 16.3761 2.07421C16.2542 2.12398 16.1434 2.1973 16.05 2.28999L13.22 5.11999L2.28999 16.05C2.1973 16.1434 2.12398 16.2542 2.07421 16.3761C2.02445 16.4979 1.99923 16.6284 1.99999 16.76V21C1.99999 21.2652 2.10534 21.5196 2.29288 21.7071C2.48042 21.8946 2.73477 22 2.99999 22H7.23999C7.37991 22.0076 7.51988 21.9857 7.65081 21.9358C7.78173 21.8858 7.9007 21.8089 7.99999 21.71L18.87 10.78L21.71 7.99999C21.8013 7.90307 21.8756 7.79152 21.93 7.66999C21.9396 7.59028 21.9396 7.5097 21.93 7.42999C21.9347 7.38344 21.9347 7.33654 21.93 7.28999L22 7.23999ZM6.82999 20H3.99999V17.17L13.93 7.23999L16.76 10.07L6.82999 20ZM18.17 8.65999L15.34 5.82999L16.76 4.41999L19.58 7.23999L18.17 8.65999Z" fill="white"/>
</svg>
